Coordinates
version=1
nRows=8
nColumns=40
inDegrees=yes

Units are S.I. units (second, meters, Newtons, ...)
If the header above contains a line with 'inDegrees', this indicates whether rotational values are in degrees (yes) or radians (no).

endheader
time	pelvis_tilt	pelvis_list	pelvis_rotation	pelvis_tx	pelvis_ty	pelvis_tz	hip_flexion_r	hip_adduction_r	hip_rotation_r	knee_angle_r	knee_angle_r_beta	ankle_angle_r	subtalar_angle_r	mtp_angle_r	hip_flexion_l	hip_adduction_l	hip_rotation_l	knee_angle_l	knee_angle_l_beta	ankle_angle_l	subtalar_angle_l	mtp_angle_l	lumbar_extension	lumbar_bending	lumbar_rotation	arm_flex_r	arm_add_r	arm_rot_r	elbow_flex_r	pro_sup_r	wrist_flex_r	wrist_dev_r	arm_flex_l	arm_add_l	arm_rot_l	elbow_flex_l	pro_sup_l	wrist_flex_l	wrist_dev_l
      0.03333300	     -0.90811213	      4.54578198	     -0.38679176	      0.76782399	      1.06274454	     -0.52393167	     23.60677885	     -6.16524297	      4.16691262	     67.02589734	      1.16982259	     -6.04445902	      0.00000000	      0.00000000	     13.63073592	      7.65222852	      3.73536991	     24.63325179	      0.42993135	      4.61230676	      0.00000000	      0.00000000	     -8.23051544	     -4.75347400	     -4.16789507	     -9.10092525	    -10.62037242	     -2.24279646	     40.29887936	     49.46862021	      0.00000000	      0.00000000	     -2.56502493	    -15.92677673	     -2.63182690	     36.11316160	     51.91246308	      0.00000000	      0.00000000
      0.04166700	     -0.99240508	      4.24952926	     -0.38328774	      0.76816000	      1.06377400	     -0.52448588	     24.60155547	     -5.75940001	      4.12114073	     66.57895377	      1.16202196	     -5.86932609	      0.00000000	      0.00000000	     12.73700644	      7.41569653	      3.94992963	     24.11885112	      0.42095336	      5.02351097	      0.00000000	      0.00000000	     -8.01514949	     -4.32900970	     -4.24948027	     -9.67143482	    -10.68872882	     -2.19780987	     39.91349155	     49.43487085	      0.00000000	      0.00000000	     -2.23385265	    -15.81162572	     -2.58110065	     36.55865773	     51.94023209	      0.00000000	      0.00000000
      0.05000000	     -1.01834334	      3.91667705	     -0.39470699	      0.76805311	      1.06494528	     -0.52478892	     25.50103995	     -5.22578256	      4.20908764	     65.94515293	      1.15096004	     -5.70355522	      0.00000000	      0.00000000	     11.74703566	      7.13477076	      4.36679771	     23.48304950	      0.40985653	      5.40543227	      0.00000000	      0.00000000	     -7.94621125	     -3.89051150	     -4.39138672	    -10.05418778	    -10.73223054	     -2.14098419	     39.42938276	     49.38425999	      0.00000000	      0.00000000	     -1.89177642	    -15.75896619	     -2.41972339	     37.09375690	     51.98481748	      0.00000000	      0.00000000
      0.05833300	     -1.06517158	      3.67012671	     -0.35655026	      0.76751496	      1.06609308	     -0.52501343	     26.39103869	     -4.87556552	      4.15624047	     65.02501697	      1.13490064	     -5.37186084	      0.00000000	      0.00000000	     10.84730976	      6.90927685	      4.57190844	     22.91815579	      0.39999728	      5.65023142	      0.00000000	      0.00000000	     -7.90312355	     -3.55967625	     -4.55568884	    -10.44028219	    -10.77305846	     -2.06506850	     39.00314126	     49.33881913	      0.00000000	      0.00000000	     -1.46628788	    -15.75440478	     -2.28489622	     37.63785389	     52.00425268	      0.00000000	      0.00000000
      0.06666700	     -0.68574661	      3.42254958	     -0.29216923	      0.76656148	      1.06789284	     -0.52514572	     26.70255712	     -4.59752400	      3.96033053	     63.64524902	      1.11081915	     -4.54911284	      0.00000000	      0.00000000	      9.33858874	      6.68724415	      4.97983433	     21.98780453	      0.38375958	      5.68511340	      0.00000000	      0.00000000	     -8.46047113	     -3.23177764	     -4.89885030	    -10.44752024	    -10.78746842	     -1.83116517	     38.25116471	     49.23526815	      0.00000000	      0.00000000	     -1.00635760	    -15.87309933	     -1.92977898	     38.36590509	     52.03434475	      0.00000000	      0.00000000
      0.07500000	     -0.57882508	      3.24639857	     -0.19575166	      0.76523765	      1.06912592	     -0.52539941	     27.29697384	     -4.48838029	      3.64610386	     61.94380255	      1.08112331	     -3.38072708	      0.00000000	      0.00000000	      8.25691126	      6.52793127	      5.23900524	     21.26669077	      0.37117377	      5.75682410	      0.00000000	      0.00000000	     -8.74026483	     -2.97233610	     -5.20133737	    -10.58602744	    -10.80871362	     -1.63535831	     37.78537690	     49.18289862	      0.00000000	      0.00000000	     -0.48969827	    -15.93309415	     -1.78544810	     39.00723265	     52.01078884	      0.00000000	      0.00000000
      0.08333300	     -0.53609777	      3.09334078	     -0.04456080	      0.76381414	      1.07010380	     -0.52580484	     27.89515312	     -4.49324167	      3.18821710	     59.95336308	      1.04638358	     -2.26407134	      0.00000000	      0.00000000	      7.28116009	      6.39982548	      5.47246771	     20.60836592	      0.35968384	      5.83505755	      0.00000000	      0.00000000	     -8.96120995	     -2.71935412	     -5.54416259	    -10.72435694	    -10.81704164	     -1.50985051	     37.33993313	     49.16421179	      0.00000000	      0.00000000	      0.02846040	    -15.97700326	     -1.64084100	     39.65149853	     51.98111988	      0.00000000	      0.00000000
      0.09166700	     -0.32205961	      2.95661785	      0.16574890	      0.76264019	      1.07117560	     -0.52629623	     28.17372849	     -4.59805749	      2.57531400	     57.77936014	      1.00844007	     -1.56109995	      0.00000000	      0.00000000	      6.06250741	      6.28938162	      5.71795791	     19.85698126	      0.34656970	      5.88285630	      0.00000000	      0.00000000	     -9.34893107	     -2.47971902	     -5.99522472	    -10.81927466	    -10.83977755	     -1.35009808	     36.80846982	     49.18352868	      0.00000000	      0.00000000	      0.48754484	    -16.04812445	     -1.53488498	     40.36035672	     51.89121995	      0.00000000	      0.00000000
